<svg xmlns="http://www.w3.org/2000/svg" style="display:none">
  <symbol id="icon-color-picker" viewBox="0 0 256 256"><path d="M199.37,55.31A101.32,101.32,0,0,0,128,26h-1A102,102,0,0,0,26,128c0,42.09,26.07,77.44,68,92.26A30.21,30.21,0,0,0,104.11,222,30.06,30.06,0,0,0,134,192a18,18,0,0,1,18-18h46.21a29.82,29.82,0,0,0,29.25-23.31A102.71,102.71,0,0,0,230,127.11,101.25,101.25,0,0,0,199.37,55.31ZM215.76,148a17.89,17.89,0,0,1-17.55,14H152a30,30,0,0,0-30,30,18,18,0,0,1-24,17C61,195.86,38,164.85,38,128a90,90,0,0,1,89.07-90H128a90.34,90.34,0,0,1,90,89.22A90.46,90.46,0,0,1,215.76,148ZM138,76a10,10,0,1,1-10-10A10,10,0,0,1,138,76ZM94,100A10,10,0,1,1,84,90,10,10,0,0,1,94,100Zm0,56a10,10,0,1,1-10-10A10,10,0,0,1,94,156Zm88-56a10,10,0,1,1-10-10A10,10,0,0,1,182,100Z"/></symbol>
  <symbol id="icon-image-converters" viewBox="0 0 256 256"><path d="M216,42H72A14,14,0,0,0,58,56V74H40A14,14,0,0,0,26,88V200a14,14,0,0,0,14,14H184a14,14,0,0,0,14-14V182h18a14,14,0,0,0,14-14V56A14,14,0,0,0,216,42ZM70,56a2,2,0,0,1,2-2H216a2,2,0,0,1,2,2v67.57L204.53,110.1a14,14,0,0,0-19.8,0l-21.42,21.41L117.9,86.1a14,14,0,0,0-19.8,0L70,114.2ZM186,200a2,2,0,0,1-2,2H40a2,2,0,0,1-2-2V88a2,2,0,0,1,2-2H58v82a14,14,0,0,0,14,14H186Zm30-30H72a2,2,0,0,1-2-2V131.17l36.58-36.58a2,2,0,0,1,2.83,0l49.66,49.66a6,6,0,0,0,8.49,0l25.65-25.66a2,2,0,0,1,2.83,0l22,22V168A2,2,0,0,1,216,170ZM162,84a10,10,0,1,1,10,10A10,10,0,0,1,162,84Z"/></symbol>
  <symbol id="icon-media-converters" viewBox="0 0 256 256"><path d="M232,218H176a102,102,0,1,0-48,12H232a6,6,0,0,0,0-12ZM38,128a90,90,0,1,1,90,90A90.1,90.1,0,0,1,38,128Zm90-26a22,22,0,1,0-22-22A22,22,0,0,0,128,102Zm0-32a10,10,0,1,1-10,10A10,10,0,0,1,128,70Zm22,106a22,22,0,1,0-22,22A22,22,0,0,0,150,176Zm-32,0a10,10,0,1,1,10,10A10,10,0,0,1,118,176Zm58-26a22,22,0,1,0-22-22A22,22,0,0,0,176,150Zm0-32a10,10,0,1,1-10,10A10,10,0,0,1,176,118ZM80,106a22,22,0,1,0,22,22A22,22,0,0,0,80,106Zm0,32a10,10,0,1,1,10-10A10,10,0,0,1,80,138Z"/></symbol>
  <symbol id="icon-pdf-tools" viewBox="0 0 256 256"><path d="M222,152a6,6,0,0,1-6,6H190v20h18a6,6,0,0,1,0,12H190v18a6,6,0,0,1-12,0V152a6,6,0,0,1,6-6h32A6,6,0,0,1,222,152ZM90,172a26,26,0,0,1-26,26H54v10a6,6,0,0,1-12,0V152a6,6,0,0,1,6-6H64A26,26,0,0,1,90,172Zm-12,0a14,14,0,0,0-14-14H54v28H64A14,14,0,0,0,78,172Zm84,8a34,34,0,0,1-34,34H112a6,6,0,0,1-6-6V152a6,6,0,0,1,6-6h16A34,34,0,0,1,162,180Zm-12,0a22,22,0,0,0-22-22H118v44h10A22,22,0,0,0,150,180ZM42,112V40A14,14,0,0,1,56,26h96a6,6,0,0,1,4.25,1.76l56,56A6,6,0,0,1,214,88v24a6,6,0,0,1-12,0V94H152a6,6,0,0,1-6-6V38H56a2,2,0,0,0-2,2v72a6,6,0,0,1-12,0ZM158,82h35.52L158,46.48Z"/></symbol>
  <symbol id="icon-unit-converters" viewBox="0 0 256 256"><path d="M213.34,122.73a6,6,0,1,0-10.68-5.46,81.79,81.79,0,0,1-35.81,35.36l-18.14-40.8A38,38,0,0,0,134,42.48V24a6,6,0,0,0-12,0V42.48a38,38,0,0,0-14.71,69.35L58.52,221.56a6,6,0,1,0,11,4.88l25.9-58.26A93.37,93.37,0,0,0,128,174a97,97,0,0,0,32.68-5.69l25.84,58.13a6,6,0,1,0,11-4.88l-25.77-58A93.92,93.92,0,0,0,213.34,122.73ZM128,54a26,26,0,1,1-26,26A26,26,0,0,1,128,54Zm0,108a81.51,81.51,0,0,1-27.73-4.83l18-40.45a37.85,37.85,0,0,0,19.52,0l18,40.6A85.34,85.34,0,0,1,128,162Z"/></symbol>
  <symbol id="icon-utilities" viewBox="0 0 256 256"><path d="M249.92,113.4,182.47,45.49a94.12,94.12,0,0,0-133,.06L35.68,59.78a6,6,0,0,0,8.63,8.35L58,54A82,82,0,0,1,78.55,39l49,49L30.09,185.4a14,14,0,0,0,0,19.81L50.78,225.9a14,14,0,0,0,19.8,0L168,128.46l33.42,33.42a14,14,0,0,0,19.8,0l28.68-28.69A14,14,0,0,0,249.92,113.4ZM62.1,217.41a2,2,0,0,1-2.83,0L38.58,196.72a2,2,0,0,1,0-2.83L108,124.46,131.51,148ZM163.76,115.73,140,139.49,116.48,116l23.76-23.76a6,6,0,0,0,0-8.49L90.54,34A82.07,82.07,0,0,1,174,54l45.62,45.93L188,131.49l-15.76-15.76A6,6,0,0,0,163.76,115.73Zm77.66,9-28.69,28.7a2,2,0,0,1-2.83,0L196.49,140l31.56-31.57,13.37,13.46A2,2,0,0,1,241.42,124.7Z"/></symbol>
  <symbol id="icon-currency-crypto" viewBox="0 0 256 256"><path d="M128,26A102,102,0,1,0,230,128,102.12,102.12,0,0,0,128,26Zm0,192a90,90,0,1,1,90-90A90.1,90.1,0,0,1,128,218Zm38-70a26,26,0,0,1-26,26h-6v10a6,6,0,0,1-12,0V174H104a6,6,0,0,1,0-12h36a14,14,0,0,0,0-28H116a26,26,0,0,1,0-52h6V72a6,6,0,0,1,12,0V82h18a6,6,0,0,1,0,12H116a14,14,0,0,0,0,28h24A26,26,0,0,1,166,148Z"/></symbol>
  <symbol id="icon-archive-converters" viewBox="0 0 256 256"><path d="M212.24,83.76l-56-56A6,6,0,0,0,152,26H56A14,14,0,0,0,42,40V216a14,14,0,0,0,14,14H200a14,14,0,0,0,14-14V88A6,6,0,0,0,212.24,83.76ZM158,46.48,193.52,82H158ZM200,218H110V198h10a6,6,0,0,0,0-12H110V166h10a6,6,0,0,0,0-12H110V134h10a6,6,0,0,0,0-12H110V112a6,6,0,0,0-12,0v10H88a6,6,0,0,0,0,12H98v20H88a6,6,0,0,0,0,12H98v20H88a6,6,0,0,0,0,12H98v20H56a2,2,0,0,1-2-2V40a2,2,0,0,1,2-2h90V88a6,6,0,0,0,6,6h50V216A2,2,0,0,1,200,218Z"/></symbol>
  <symbol id="icon-text-converters" viewBox="0 0 256 256"><path d="M85.43,53.45a6,6,0,0,0-10.86,0l-64,136a6,6,0,1,0,10.86,5.11L38.63,158h82.74l17.2,36.55a6,6,0,1,0,10.86-5.11ZM44.28,146,80,70.09,115.72,146ZM200,98c-12.21,0-21.71,3.28-28.23,9.74a6,6,0,0,0,8.46,8.52c4.18-4.15,10.84-6.26,19.77-6.26,14.34,0,26,9.87,26,22v7.24A40.36,40.36,0,0,0,200,130c-20.95,0-38,15.25-38,34s17.05,34,38,34a40.36,40.36,0,0,0,26-9.24V192a6,6,0,0,0,12,0V132C238,113.25,221,98,200,98Zm0,88c-14.34,0-26-9.87-26-22s11.66-22,26-22,26,9.87,26,22S214.34,186,200,186Z"/></symbol>
  <symbol id="icon-developer-converters" viewBox="0 0 256 256"><path d="M121.75,41.21C115.22,31.26,105.62,26,94,26S72.78,31.26,66.25,41.21C60.93,49.31,58,60.25,58,72s2.93,22.69,8.25,30.79C72.78,112.74,82.38,118,94,118s21.22-5.26,27.75-15.21c5.32-8.1,8.25-19,8.25-30.79S127.07,49.31,121.75,41.21ZM94,106c-19,0-24-21.37-24-34s5-34,24-34,24,21.37,24,34S113,106,94,106Zm99.75,47.21C187.22,143.26,177.62,138,166,138s-21.22,5.26-27.75,15.21c-5.32,8.1-8.25,19-8.25,30.79s2.93,22.69,8.25,30.79c6.53,10,16.13,15.21,27.75,15.21s21.22-5.26,27.75-15.21c5.32-8.1,8.25-19,8.25-30.79S199.07,161.31,193.75,153.21ZM166,218c-18.95,0-24-21.37-24-34s5.05-34,24-34,24,21.37,24,34S185,218,166,218ZM146.75,48.25a6,6,0,0,1,2.34-8.16l24-13.34A6,6,0,0,1,182,32v80a6,6,0,0,1-12,0V42.2l-15.09,8.38A6,6,0,0,1,146.75,48.25ZM102,144v80a6,6,0,0,1-12,0V154.2l-15.09,8.38a6,6,0,1,1-5.82-10.49l24-13.34A6,6,0,0,1,102,144Z"/></symbol>
  <symbol id="icon-website-status" viewBox="0 0 256 256"><path d="M133.37,85.32a6,6,0,0,0-10.74,0l-72,144a6,6,0,0,0,10.74,5.37L75.71,206H180.29l14.34,28.68A6,6,0,0,0,200,238a5.87,5.87,0,0,0,2.68-.64,6,6,0,0,0,2.69-8.05ZM128,101.42,158.29,162H97.71ZM81.71,194l10-20h72.58l10,20Zm79.74-99.9A33.59,33.59,0,0,0,162,88a34,34,0,0,0-68,0,33.59,33.59,0,0,0,.55,6.1,6,6,0,1,1-11.81,2.13,46,46,0,1,1,90.52,0,6,6,0,0,1-5.89,4.94,5.64,5.64,0,0,1-1.08-.1A6,6,0,0,1,161.45,94.1ZM65.75,135A78,78,0,1,1,206,88a77.33,77.33,0,0,1-15.75,47,6,6,0,1,1-9.57-7.24A65.42,65.42,0,0,0,194,88,66,66,0,0,0,62,88a65.42,65.42,0,0,0,13.32,39.76A6,6,0,1,1,65.75,135Z"/></symbol>
  <symbol id="icon-youtube-thumbnail" viewBox="0 0 256 256"><path d="M163.33,123l-48-32A6,6,0,0,0,106,96v64a6,6,0,0,0,9.33,5l48-32a6,6,0,0,0,0-10ZM118,148.79V107.21L149.18,128ZM232.4,70a22,22,0,0,0-13.28-15C185,41.79,130.27,42,128,42s-57-.21-91.16,13A22,22,0,0,0,23.6,70C21.05,79.89,18,98,18,128s3.05,48.11,5.6,58a22,22,0,0,0,13.28,15C71,214.21,125.72,214,128,214h.71c6.91,0,58-.44,90.45-13a22,22,0,0,0,13.28-15c2.55-9.87,5.6-27.93,5.6-58S235,79.89,232.4,70ZM220.78,183a10,10,0,0,1-6,6.86C182.78,202.19,128.58,202,128,202s-54.71.2-86.75-12.17a10,10,0,0,1-6-6.86C32.84,173.78,30,156.78,30,128s2.84-45.78,5.22-55a10,10,0,0,1,6-6.86C72.06,54.26,123.53,54,127.76,54H128c.54,0,54.71-.2,86.75,12.17a10,10,0,0,1,6,6.86c2.38,9.19,5.22,26.19,5.22,55S223.16,173.78,220.78,183Z"/></symbol>
</svg>
